<?xml version="1.0" encoding="UTF-8"?>
<svg id="Layer_1" data-name="Layer 1" xmlns="http://www.w3.org/2000/svg" viewBox="0 0 246 246" width="246" height="246">
  <defs>
    <style>
      .cls-1 {
        fill: #0070fc;
      }
    </style>
  </defs>
  <path class="cls-1" d="m190.38,211.3c17.07-.54,32.15-2.98,43.4-9.34-31.42,39.65-153.43,7.44-205.77,19.13,6.61-4.37,14.32-7.44,22.8-9.55-8.38-7.21-22.67-21.84-27.53-41.15,0,0,142.45-2.55,210.49-51.22,0,0-4.11,59.71-43.4,92.14h0Zm-60.71-143.18c-1.09.28-1.91.78-2.41,1.54-.57.85-.86,1.7-.86,2.56,0,1.03.34,1.78,1.01,2.27.57.42,1.33.67,2.26.78v-7.14Zm5.59,15.91c.34-.66.52-1.41.52-2.23,0-1.3-.47-2.21-1.41-2.75-.47-.28-1.23-.49-2.26-.66v7.98c1.49-.38,2.54-1.16,3.15-2.34h0Zm-25.72-3.63c0-11.91,9.56-22.9,21.35-24.55,11.79-1.65,21.34,6.66,21.34,18.57s-9.55,22.89-21.34,24.54c-11.79,1.65-21.35-6.65-21.35-18.55h0Zm20.13-2.29v8.51c-1.47-.01-2.5-.5-3.07-1.48-.36-.61-.58-1.61-.67-3.02l-2.73.38c0,1.78.3,3.16.88,4.12,1.01,1.69,2.88,2.47,5.58,2.37v2.48l2.44-.34v-2.49c1.61-.45,2.89-1.02,3.78-1.73,1.78-1.42,2.66-3.5,2.66-6.26,0-1.9-.69-3.26-2.08-4.03-.79-.44-2.25-.81-4.36-1.14v-7.66c1.16-.01,2.04.4,2.6,1.24.35.52.57,1.17.63,1.95l2.7-.38c-.06-1.76-.62-3.09-1.72-4.01-1-.85-2.41-1.24-4.21-1.18v-2.09l-2.44.34v2.09c-1.83.37-3.26,1.2-4.32,2.51-1.15,1.42-1.72,2.92-1.72,4.5,0,1.77.53,3.07,1.59,3.91.98.79,2.47,1.25,4.45,1.41h0Zm-84.39,64.17c5.55.84,10.78-.56,15.92-1.82-.57,3.75-1.26,7.45-2.1,11.04,7.9,1.19,15.32-1.11,22.63-2.84-.16.72-.32,1.43-.49,2.15l-1,4.29,4.25.28c16.89,1.11,28.02-9.91,42.06-16.89,4.24-2.11,8.96-3.35,13.94-4.12-10.75-5.34-30.49,4.15-38.26,8.54-7.77,4.38-6.78-24.69-6.78-39.24h-.01c-.01-9.57-1-19.14-3.31-28.46-3.44-13.89-9.45-27.22-16.02-39.72-1.95-3.7-1.75-8.17,2.26-10.57.02-.02.05-.03.07-.04,3.62-2.2,7.42-4.13,11.31-5.79,14.41-6.15,31.67-6.61,46.09-.26,33.22,14.63,33.72,60.56,29.85,90.91-.76,5.97-1.8,11.92-3.24,17.72-1.2,4.85-4.9,8.71-9.72,10.01-.42.11-.85.22-1.28.32-3.89.94-8.07,1.49-12.33,2.28-4.25.8-8.64,1.95-12.68,4.02-1.99,1.02-3.88,2.24-5.56,3.73-1.28,1.14-2.87,4.33-4.23,5.01,3.7-1.84,7.36-3.55,11.4-4.53,11.57-2.8,24.31-.85,35.1-6.76,6.02-3.3,6.93-11.26,8.44-17.35,1.73-6.99,2.98-14.09,3.86-21.23.77-6.29,1.27-12.83,1.36-19.45.32-24.58-5.14-50.07-24.28-66.53C125.63-6.14,86.08,2.8,61.94,25.45c0,0-3.39,3.18-3.39,3.18l3.06,3.33c.59.65,1.16,1.32,1.73,1.99-5.44,2.25-14.43,6.65-20.55,13.12,1.43,1.64,2.77,3.41,4.04,5.29-4.2,1.88-10.01,5.01-14.14,9.38,15.16,17.41,19.05,52.68,12.57,80.54h0ZM103.85,20.7c21.49,4.24,36.02,11.49,49.19,23.75-6.01-17.32-27.63-27.49-49.19-23.75h0Zm134.56,144.8c1.79,9.76-10.16,30.48-29.89,36.46,14.34-1.4,43.83-14.94,29.89-36.46h0ZM6.09,196.18c-10.16,27.3,18.13,18.33,31.88,12.55-18.33,3.79-30.49,1.79-31.88-12.55h0Zm27.23,35.48c38.79,1.72,97.57,14.67,137.88-3.13-51.01,4.52-106.53-7-137.88,3.13h0Zm0,0"/>
</svg>