<?xml version="1.0" standalone="no"?>
<!DOCTYPE svg PUBLIC "-//W3C//DTD SVG 20010904//EN"
 "http://www.w3.org/TR/2001/REC-SVG-20010904/DTD/svg10.dtd">
<svg version="1.0" xmlns="http://www.w3.org/2000/svg"
 width="681.333" height="681.333" viewBox="0 0 511 511"
 preserveAspectRatio="xMidYMid meet">

<g transform="translate(0.000000,682.000000) scale(0.100000,-0.100000)"
fill="#000000" stroke="none">
<path d="M3000 6629 c-376 -42 -771 -204 -1095 -449 -101 -77 -265 -226 -265
-242 0 -6 27 -40 61 -76 l61 -65 -124 -61 c-69 -34 -169 -91 -224 -128 -96
-64 -214 -162 -214 -177 0 -4 22 -36 50 -72 27 -35 50 -67 50 -71 0 -4 -33
-24 -72 -44 -98 -49 -224 -134 -271 -182 l-38 -39 61 -84 c212 -294 340 -740
365 -1279 10 -223 -23 -619 -69 -812 -13 -54 -12 -57 8 -62 56 -15 236 4 364
38 63 17 62 27 26 -155 -14 -72 -22 -134 -19 -138 4 -3 59 -6 123 -5 119 1
220 16 392 59 52 13 96 22 98 20 3 -2 -3 -33 -12 -69 -27 -108 -31 -103 83
-111 256 -18 476 53 834 269 342 207 430 248 607 287 58 12 109 26 113 29 18
16 -120 43 -213 42 -183 -1 -420 -72 -699 -207 -95 -47 -179 -85 -185 -85 -16
0 -50 37 -68 75 -47 95 -58 226 -68 790 -10 607 -22 732 -100 1045 -72 288
-191 588 -389 989 -68 137 -81 171 -81 212 0 55 24 111 62 145 31 29 187 115
306 168 527 237 1138 191 1562 -117 88 -64 223 -208 290 -309 199 -301 302
-671 330 -1188 20 -369 -19 -857 -101 -1244 -34 -165 -61 -228 -125 -296 -76
-81 -134 -103 -394 -150 -334 -60 -457 -100 -587 -188 -57 -38 -75 -57 -151
-151 -32 -40 -32 -41 -8 -31 14 5 44 19 67 31 136 69 278 100 580 129 256 24
358 40 464 76 247 82 293 147 384 544 100 443 130 679 138 1092 8 400 -15 620
-93 918 -176 672 -612 1139 -1206 1291 -176 44 -416 60 -608 38z"/>
<path d="M2955 6174 c-64 -10 -56 -17 45 -40 488 -110 864 -293 1184 -573 32
-29 60 -50 63 -48 8 9 -48 120 -97 191 -97 140 -270 282 -434 355 -75 34 -201
75 -296 97 -64 15 -400 28 -465 18z"/>
<path d="M3570 5174 c-30 -8 -93 -33 -140 -56 -69 -33 -101 -58 -170 -127
-127 -128 -187 -247 -210 -413 -35 -252 106 -490 336 -566 334 -111 729 130
824 504 76 298 -72 577 -349 658 -68 20 -216 20 -291 0z m100 -228 c0 -20 6
-25 45 -30 70 -11 130 -82 111 -131 -7 -20 -66 -20 -66 -1 0 21 -41 63 -67 71
-23 6 -23 6 -23 -103 l0 -110 52 -12 c99 -21 134 -66 125 -157 -9 -84 -45
-137 -117 -170 -54 -25 -60 -31 -60 -59 0 -24 -5 -33 -22 -38 -35 -9 -37 -8
-40 27 -3 27 -7 32 -33 35 -84 8 -145 69 -145 146 0 34 2 36 33 36 29 0 33 -4
47 -48 11 -34 23 -51 43 -60 52 -25 57 -14 57 112 l0 114 -40 7 c-48 8 -100
41 -118 75 -8 15 -11 46 -9 78 5 72 45 129 114 162 45 21 53 29 53 53 0 23 4
27 30 27 25 0 30 -4 30 -24z"/>
<path d="M3544 4809 c-23 -24 -29 -39 -29 -74 0 -51 16 -72 63 -81 l32 -6 0
96 c0 86 -2 96 -18 96 -10 0 -31 -14 -48 -31z"/>
<path d="M3670 4451 c0 -112 0 -112 23 -106 54 17 92 86 80 146 -7 35 -30 57
-71 65 l-32 7 0 -112z"/>
<path d="M6420 3384 c-326 -229 -846 -476 -1395 -664 -1041 -356 -2583 -622
-3995 -690 -335 -16 -370 -20 -370 -35 0 -35 67 -212 125 -330 115 -237 257
-428 481 -652 l142 -142 -72 -21 c-122 -35 -267 -91 -361 -138 -112 -55 -177
-93 -172 -99 3 -2 47 3 98 12 401 70 877 70 2069 0 849 -50 1033 -57 1445 -57
476 0 762 19 1065 73 317 56 589 154 774 278 76 51 226 185 226 202 0 4 -37
-9 -82 -30 -235 -109 -523 -173 -893 -201 -233 -17 -225 -30 -73 118 216 210
383 429 539 708 211 377 385 878 473 1364 28 153 50 323 45 339 -2 6 -33 -10
-69 -35z"/>
<path d="M6617 2058 c-22 -327 -363 -741 -727 -884 -39 -15 -68 -29 -65 -32 8
-8 124 18 225 50 252 81 466 220 576 375 107 149 122 313 46 486 -43 97 -48
97 -55 5z"/>
<path d="M150 1213 c-29 -97 -37 -216 -19 -280 17 -62 71 -115 140 -139 121
-40 350 -10 604 81 108 38 216 83 173 71 -127 -35 -436 -50 -543 -27 -78 17
-165 62 -211 108 -42 42 -90 137 -103 206 -5 26 -11 50 -13 53 -3 2 -15 -31
-28 -73z"/>
<path d="M1565 423 c-188 -12 -493 -62 -591 -97 l-39 -13 95 -7 c195 -14 347
-28 790 -71 250 -25 538 -51 640 -60 969 -78 1640 -25 2169 171 127 48 140 57
71 50 -292 -28 -942 -31 -1480 -6 -741 34 -920 40 -1244 38 -199 -1 -383 -3
-411 -5z"/>
</g>
</svg>
